<mxfile host="app.diagrams.net" agent="Mozilla/5.0 (Windows NT 10.0; Win64; x64) AppleWebKit/537.36 (KHTML, like Gecko) Chrome/138.0.0.0 YaBrowser/25.8.0.0 Safari/537.36" version="28.2.0">
  <diagram id="C5RBs43oDa-KdzZeNtuy" name="Page-1">
    <mxGraphModel dx="2205" dy="1965" grid="1" gridSize="10" guides="1" tooltips="1" connect="1" arrows="1" fold="1" page="1" pageScale="1" pageWidth="827" pageHeight="1169" math="0" shadow="0">
      <root>
        <mxCell id="WIyWlLk6GJQsqaUBKTNV-0" />
        <mxCell id="WIyWlLk6GJQsqaUBKTNV-1" parent="WIyWlLk6GJQsqaUBKTNV-0" />
        <mxCell id="Kz0ILVLRbBPBbnpEan82-95" value="" style="rounded=0;whiteSpace=wrap;html=1;fillColor=#fff2cc;strokeColor=#d6b656;" parent="WIyWlLk6GJQsqaUBKTNV-1" vertex="1">
          <mxGeometry x="-170" y="-390" width="140" height="350" as="geometry" />
        </mxCell>
        <mxCell id="Kz0ILVLRbBPBbnpEan82-2" value="" style="rounded=0;whiteSpace=wrap;html=1;fillColor=#ffe6cc;strokeColor=#d79b00;" parent="WIyWlLk6GJQsqaUBKTNV-1" vertex="1">
          <mxGeometry x="-50" y="220" width="680" height="500" as="geometry" />
        </mxCell>
        <mxCell id="Kz0ILVLRbBPBbnpEan82-27" value="" style="rounded=0;whiteSpace=wrap;html=1;fillColor=#fff2cc;strokeColor=#d6b656;" parent="WIyWlLk6GJQsqaUBKTNV-1" vertex="1">
          <mxGeometry x="130" y="510" width="460" height="200" as="geometry" />
        </mxCell>
        <mxCell id="Kz0ILVLRbBPBbnpEan82-26" value="" style="rounded=0;whiteSpace=wrap;html=1;fillColor=#fff2cc;strokeColor=#d6b656;" parent="WIyWlLk6GJQsqaUBKTNV-1" vertex="1">
          <mxGeometry x="-40" y="230" width="660" height="270" as="geometry" />
        </mxCell>
        <mxCell id="Kz0ILVLRbBPBbnpEan82-9" style="edgeStyle=orthogonalEdgeStyle;rounded=0;orthogonalLoop=1;jettySize=auto;html=1;exitX=0.25;exitY=1;exitDx=0;exitDy=0;" parent="WIyWlLk6GJQsqaUBKTNV-1" source="Kz0ILVLRbBPBbnpEan82-3" target="Kz0ILVLRbBPBbnpEan82-5" edge="1">
          <mxGeometry relative="1" as="geometry" />
        </mxCell>
        <mxCell id="Kz0ILVLRbBPBbnpEan82-11" value="Доставка&lt;div&gt;сырья&lt;/div&gt;" style="edgeLabel;html=1;align=center;verticalAlign=middle;resizable=0;points=[];labelBackgroundColor=light-dark(#a5e2ee, #ededed);" parent="Kz0ILVLRbBPBbnpEan82-9" vertex="1" connectable="0">
          <mxGeometry x="0.0956" relative="1" as="geometry">
            <mxPoint x="-13" as="offset" />
          </mxGeometry>
        </mxCell>
        <mxCell id="Kz0ILVLRbBPBbnpEan82-10" style="edgeStyle=orthogonalEdgeStyle;rounded=0;orthogonalLoop=1;jettySize=auto;html=1;exitX=0.75;exitY=1;exitDx=0;exitDy=0;" parent="WIyWlLk6GJQsqaUBKTNV-1" source="Kz0ILVLRbBPBbnpEan82-3" target="Kz0ILVLRbBPBbnpEan82-6" edge="1">
          <mxGeometry relative="1" as="geometry" />
        </mxCell>
        <mxCell id="Kz0ILVLRbBPBbnpEan82-12" value="Отгрузка&lt;div&gt;продукции&lt;/div&gt;" style="edgeLabel;html=1;align=center;verticalAlign=middle;resizable=0;points=[];labelBackgroundColor=light-dark(#a5e2ee, #ededed);" parent="Kz0ILVLRbBPBbnpEan82-10" vertex="1" connectable="0">
          <mxGeometry x="-0.1427" relative="1" as="geometry">
            <mxPoint x="24" as="offset" />
          </mxGeometry>
        </mxCell>
        <mxCell id="Kz0ILVLRbBPBbnpEan82-3" value="Транспортный отдел" style="shape=process;whiteSpace=wrap;html=1;backgroundOutline=1;fillColor=#d5e8d4;strokeColor=#82b366;" parent="WIyWlLk6GJQsqaUBKTNV-1" vertex="1">
          <mxGeometry x="60" y="250" width="120" height="60" as="geometry" />
        </mxCell>
        <mxCell id="Kz0ILVLRbBPBbnpEan82-13" style="edgeStyle=orthogonalEdgeStyle;rounded=0;orthogonalLoop=1;jettySize=auto;html=1;exitX=0.5;exitY=1;exitDx=0;exitDy=0;" parent="WIyWlLk6GJQsqaUBKTNV-1" source="Kz0ILVLRbBPBbnpEan82-4" target="Kz0ILVLRbBPBbnpEan82-7" edge="1">
          <mxGeometry relative="1" as="geometry" />
        </mxCell>
        <mxCell id="Kz0ILVLRbBPBbnpEan82-15" value="Данные&lt;div&gt;качества&lt;/div&gt;" style="edgeLabel;html=1;align=center;verticalAlign=middle;resizable=0;points=[];labelBackgroundColor=light-dark(#a5e2ee, #ededed);" parent="Kz0ILVLRbBPBbnpEan82-13" vertex="1" connectable="0">
          <mxGeometry x="0.0071" relative="1" as="geometry">
            <mxPoint as="offset" />
          </mxGeometry>
        </mxCell>
        <mxCell id="Kz0ILVLRbBPBbnpEan82-14" style="edgeStyle=orthogonalEdgeStyle;rounded=0;orthogonalLoop=1;jettySize=auto;html=1;exitX=0.25;exitY=1;exitDx=0;exitDy=0;" parent="WIyWlLk6GJQsqaUBKTNV-1" source="Kz0ILVLRbBPBbnpEan82-4" target="Kz0ILVLRbBPBbnpEan82-8" edge="1">
          <mxGeometry relative="1" as="geometry">
            <Array as="points">
              <mxPoint x="450" y="340" />
              <mxPoint x="390" y="340" />
              <mxPoint x="390" y="417" />
              <mxPoint x="355" y="417" />
            </Array>
          </mxGeometry>
        </mxCell>
        <mxCell id="Kz0ILVLRbBPBbnpEan82-16" value="Данные&lt;div&gt;качества&lt;/div&gt;" style="edgeLabel;html=1;align=center;verticalAlign=middle;resizable=0;points=[];labelBackgroundColor=light-dark(#a5e2ee, #ededed);" parent="Kz0ILVLRbBPBbnpEan82-14" vertex="1" connectable="0">
          <mxGeometry x="0.3041" relative="1" as="geometry">
            <mxPoint as="offset" />
          </mxGeometry>
        </mxCell>
        <mxCell id="Kz0ILVLRbBPBbnpEan82-4" value="Лаборатория" style="shape=process;whiteSpace=wrap;html=1;backgroundOutline=1;fillColor=#d5e8d4;strokeColor=#82b366;" parent="WIyWlLk6GJQsqaUBKTNV-1" vertex="1">
          <mxGeometry x="420" y="250" width="120" height="60" as="geometry" />
        </mxCell>
        <mxCell id="Kz0ILVLRbBPBbnpEan82-5" value="Отдел закупок" style="shape=process;whiteSpace=wrap;html=1;backgroundOutline=1;fillColor=#d5e8d4;strokeColor=#82b366;" parent="WIyWlLk6GJQsqaUBKTNV-1" vertex="1">
          <mxGeometry x="-30" y="390" width="120" height="60" as="geometry" />
        </mxCell>
        <mxCell id="Kz0ILVLRbBPBbnpEan82-6" value="Отдел сбыта" style="shape=process;whiteSpace=wrap;html=1;backgroundOutline=1;fillColor=#d5e8d4;strokeColor=#82b366;" parent="WIyWlLk6GJQsqaUBKTNV-1" vertex="1">
          <mxGeometry x="140" y="390" width="120" height="60" as="geometry" />
        </mxCell>
        <mxCell id="Kz0ILVLRbBPBbnpEan82-7" value="Технологический отдел" style="shape=process;whiteSpace=wrap;html=1;backgroundOutline=1;fillColor=#d5e8d4;strokeColor=#82b366;" parent="WIyWlLk6GJQsqaUBKTNV-1" vertex="1">
          <mxGeometry x="420" y="390" width="120" height="60" as="geometry" />
        </mxCell>
        <mxCell id="Kz0ILVLRbBPBbnpEan82-24" style="edgeStyle=orthogonalEdgeStyle;rounded=0;orthogonalLoop=1;jettySize=auto;html=1;exitX=0.5;exitY=1;exitDx=0;exitDy=0;entryX=0.5;entryY=0;entryDx=0;entryDy=0;" parent="WIyWlLk6GJQsqaUBKTNV-1" source="Kz0ILVLRbBPBbnpEan82-8" target="Kz0ILVLRbBPBbnpEan82-23" edge="1">
          <mxGeometry relative="1" as="geometry" />
        </mxCell>
        <mxCell id="Kz0ILVLRbBPBbnpEan82-25" value="Готовая продукция" style="edgeLabel;html=1;align=center;verticalAlign=middle;resizable=0;points=[];labelBackgroundColor=light-dark(#a5e2ee, #ededed);" parent="Kz0ILVLRbBPBbnpEan82-24" vertex="1" connectable="0">
          <mxGeometry x="-0.237" y="-3" relative="1" as="geometry">
            <mxPoint as="offset" />
          </mxGeometry>
        </mxCell>
        <mxCell id="Kz0ILVLRbBPBbnpEan82-8" value="Производственный цех" style="shape=process;whiteSpace=wrap;html=1;backgroundOutline=1;fillColor=#d5e8d4;strokeColor=#82b366;" parent="WIyWlLk6GJQsqaUBKTNV-1" vertex="1">
          <mxGeometry x="220" y="525" width="270" height="60" as="geometry" />
        </mxCell>
        <mxCell id="Kz0ILVLRbBPBbnpEan82-17" style="edgeStyle=orthogonalEdgeStyle;rounded=0;orthogonalLoop=1;jettySize=auto;html=1;exitX=0.5;exitY=1;exitDx=0;exitDy=0;entryX=0.77;entryY=0.042;entryDx=0;entryDy=0;entryPerimeter=0;" parent="WIyWlLk6GJQsqaUBKTNV-1" source="Kz0ILVLRbBPBbnpEan82-7" target="Kz0ILVLRbBPBbnpEan82-8" edge="1">
          <mxGeometry relative="1" as="geometry" />
        </mxCell>
        <mxCell id="Kz0ILVLRbBPBbnpEan82-18" value="Технологии/&lt;div&gt;стандарты&lt;/div&gt;" style="edgeLabel;html=1;align=center;verticalAlign=middle;resizable=0;points=[];labelBackgroundColor=light-dark(#a5e2ee, #ededed);" parent="Kz0ILVLRbBPBbnpEan82-17" vertex="1" connectable="0">
          <mxGeometry x="0.3829" y="-3" relative="1" as="geometry">
            <mxPoint x="1" y="-2" as="offset" />
          </mxGeometry>
        </mxCell>
        <mxCell id="Kz0ILVLRbBPBbnpEan82-19" style="edgeStyle=orthogonalEdgeStyle;rounded=0;orthogonalLoop=1;jettySize=auto;html=1;exitX=0.5;exitY=1;exitDx=0;exitDy=0;entryX=0.075;entryY=-0.016;entryDx=0;entryDy=0;entryPerimeter=0;" parent="WIyWlLk6GJQsqaUBKTNV-1" source="Kz0ILVLRbBPBbnpEan82-5" target="Kz0ILVLRbBPBbnpEan82-8" edge="1">
          <mxGeometry relative="1" as="geometry" />
        </mxCell>
        <mxCell id="Kz0ILVLRbBPBbnpEan82-22" value="Сырьё/материалы" style="edgeLabel;html=1;align=center;verticalAlign=middle;resizable=0;points=[];labelBackgroundColor=light-dark(#a5e2ee, #ededed);" parent="Kz0ILVLRbBPBbnpEan82-19" vertex="1" connectable="0">
          <mxGeometry x="-0.1597" relative="1" as="geometry">
            <mxPoint as="offset" />
          </mxGeometry>
        </mxCell>
        <mxCell id="Kz0ILVLRbBPBbnpEan82-20" style="edgeStyle=orthogonalEdgeStyle;rounded=0;orthogonalLoop=1;jettySize=auto;html=1;exitX=0.5;exitY=1;exitDx=0;exitDy=0;entryX=0.3;entryY=-0.016;entryDx=0;entryDy=0;entryPerimeter=0;" parent="WIyWlLk6GJQsqaUBKTNV-1" source="Kz0ILVLRbBPBbnpEan82-6" target="Kz0ILVLRbBPBbnpEan82-8" edge="1">
          <mxGeometry relative="1" as="geometry">
            <Array as="points">
              <mxPoint x="200" y="470" />
              <mxPoint x="301" y="470" />
            </Array>
          </mxGeometry>
        </mxCell>
        <mxCell id="Kz0ILVLRbBPBbnpEan82-21" value="План производства" style="edgeLabel;html=1;align=center;verticalAlign=middle;resizable=0;points=[];labelBackgroundColor=light-dark(#a5e2ee, #ededed);" parent="Kz0ILVLRbBPBbnpEan82-20" vertex="1" connectable="0">
          <mxGeometry x="-0.3592" y="-1" relative="1" as="geometry">
            <mxPoint x="44" y="-1" as="offset" />
          </mxGeometry>
        </mxCell>
        <mxCell id="Kz0ILVLRbBPBbnpEan82-23" value="Склад" style="shape=process;whiteSpace=wrap;html=1;backgroundOutline=1;fillColor=#d5e8d4;strokeColor=#82b366;" parent="WIyWlLk6GJQsqaUBKTNV-1" vertex="1">
          <mxGeometry x="295" y="630" width="120" height="60" as="geometry" />
        </mxCell>
        <mxCell id="Kz0ILVLRbBPBbnpEan82-28" value="Производственные отделы" style="text;html=1;align=center;verticalAlign=middle;whiteSpace=wrap;rounded=0;fontStyle=1" parent="WIyWlLk6GJQsqaUBKTNV-1" vertex="1">
          <mxGeometry x="480" y="680" width="110" height="30" as="geometry" />
        </mxCell>
        <mxCell id="Kz0ILVLRbBPBbnpEan82-29" value="Все отделы" style="text;html=1;align=center;verticalAlign=middle;whiteSpace=wrap;rounded=0;fontStyle=1" parent="WIyWlLk6GJQsqaUBKTNV-1" vertex="1">
          <mxGeometry x="510" y="470" width="110" height="30" as="geometry" />
        </mxCell>
        <mxCell id="Kz0ILVLRbBPBbnpEan82-30" value="" style="rounded=0;whiteSpace=wrap;html=1;fillColor=#fff2cc;strokeColor=#d6b656;" parent="WIyWlLk6GJQsqaUBKTNV-1" vertex="1">
          <mxGeometry x="670" y="230" width="300" height="120" as="geometry" />
        </mxCell>
        <mxCell id="Kz0ILVLRbBPBbnpEan82-34" style="edgeStyle=orthogonalEdgeStyle;rounded=0;orthogonalLoop=1;jettySize=auto;html=1;exitX=0;exitY=0.5;exitDx=0;exitDy=0;" parent="WIyWlLk6GJQsqaUBKTNV-1" source="Kz0ILVLRbBPBbnpEan82-31" target="Kz0ILVLRbBPBbnpEan82-26" edge="1">
          <mxGeometry relative="1" as="geometry" />
        </mxCell>
        <mxCell id="Kz0ILVLRbBPBbnpEan82-31" value="Лаборатория" style="shape=process;whiteSpace=wrap;html=1;backgroundOutline=1;fillColor=#d5e8d4;strokeColor=#82b366;" parent="WIyWlLk6GJQsqaUBKTNV-1" vertex="1">
          <mxGeometry x="690" y="250" width="120" height="60" as="geometry" />
        </mxCell>
        <mxCell id="Kz0ILVLRbBPBbnpEan82-35" style="edgeStyle=orthogonalEdgeStyle;rounded=0;orthogonalLoop=1;jettySize=auto;html=1;exitX=0;exitY=0.5;exitDx=0;exitDy=0;entryX=1;entryY=0.25;entryDx=0;entryDy=0;" parent="WIyWlLk6GJQsqaUBKTNV-1" source="Kz0ILVLRbBPBbnpEan82-32" target="Kz0ILVLRbBPBbnpEan82-27" edge="1">
          <mxGeometry relative="1" as="geometry">
            <Array as="points">
              <mxPoint x="820" y="280" />
              <mxPoint x="820" y="410" />
              <mxPoint x="715" y="410" />
              <mxPoint x="715" y="560" />
            </Array>
          </mxGeometry>
        </mxCell>
        <mxCell id="Kz0ILVLRbBPBbnpEan82-32" value="Лаборатория" style="shape=process;whiteSpace=wrap;html=1;backgroundOutline=1;fillColor=#d5e8d4;strokeColor=#82b366;" parent="WIyWlLk6GJQsqaUBKTNV-1" vertex="1">
          <mxGeometry x="840" y="250" width="120" height="60" as="geometry" />
        </mxCell>
        <mxCell id="Kz0ILVLRbBPBbnpEan82-33" value="Подразделения обеспечения" style="text;html=1;align=center;verticalAlign=middle;whiteSpace=wrap;rounded=0;fontStyle=1" parent="WIyWlLk6GJQsqaUBKTNV-1" vertex="1">
          <mxGeometry x="860" y="320" width="110" height="30" as="geometry" />
        </mxCell>
        <mxCell id="Kz0ILVLRbBPBbnpEan82-36" value="" style="rounded=0;whiteSpace=wrap;html=1;fillColor=#fff2cc;strokeColor=#d6b656;" parent="WIyWlLk6GJQsqaUBKTNV-1" vertex="1">
          <mxGeometry x="-390" y="600" width="300" height="120" as="geometry" />
        </mxCell>
        <mxCell id="Kz0ILVLRbBPBbnpEan82-37" value="Управления финансами" style="shape=process;whiteSpace=wrap;html=1;backgroundOutline=1;fillColor=#d5e8d4;strokeColor=#82b366;" parent="WIyWlLk6GJQsqaUBKTNV-1" vertex="1">
          <mxGeometry x="-380" y="620" width="120" height="60" as="geometry" />
        </mxCell>
        <mxCell id="Kz0ILVLRbBPBbnpEan82-38" value="Отдел кадров" style="shape=process;whiteSpace=wrap;html=1;backgroundOutline=1;fillColor=#d5e8d4;strokeColor=#82b366;" parent="WIyWlLk6GJQsqaUBKTNV-1" vertex="1">
          <mxGeometry x="-230" y="620" width="120" height="60" as="geometry" />
        </mxCell>
        <mxCell id="Kz0ILVLRbBPBbnpEan82-39" value="Центр управления" style="text;html=1;align=center;verticalAlign=middle;whiteSpace=wrap;rounded=0;fontStyle=1" parent="WIyWlLk6GJQsqaUBKTNV-1" vertex="1">
          <mxGeometry x="-200" y="690" width="110" height="30" as="geometry" />
        </mxCell>
        <mxCell id="Kz0ILVLRbBPBbnpEan82-40" style="edgeStyle=orthogonalEdgeStyle;rounded=0;orthogonalLoop=1;jettySize=auto;html=1;exitX=1;exitY=0.5;exitDx=0;exitDy=0;entryX=-0.004;entryY=0.51;entryDx=0;entryDy=0;entryPerimeter=0;" parent="WIyWlLk6GJQsqaUBKTNV-1" source="Kz0ILVLRbBPBbnpEan82-36" target="Kz0ILVLRbBPBbnpEan82-2" edge="1">
          <mxGeometry relative="1" as="geometry" />
        </mxCell>
        <mxCell id="Kz0ILVLRbBPBbnpEan82-47" style="edgeStyle=orthogonalEdgeStyle;rounded=0;orthogonalLoop=1;jettySize=auto;html=1;exitX=0.5;exitY=1;exitDx=0;exitDy=0;entryX=0.5;entryY=0;entryDx=0;entryDy=0;" parent="WIyWlLk6GJQsqaUBKTNV-1" source="Kz0ILVLRbBPBbnpEan82-42" target="Kz0ILVLRbBPBbnpEan82-43" edge="1">
          <mxGeometry relative="1" as="geometry" />
        </mxCell>
        <mxCell id="Kz0ILVLRbBPBbnpEan82-48" style="edgeStyle=orthogonalEdgeStyle;rounded=0;orthogonalLoop=1;jettySize=auto;html=1;exitX=0.5;exitY=1;exitDx=0;exitDy=0;entryX=0.5;entryY=0;entryDx=0;entryDy=0;" parent="WIyWlLk6GJQsqaUBKTNV-1" source="Kz0ILVLRbBPBbnpEan82-42" target="Kz0ILVLRbBPBbnpEan82-44" edge="1">
          <mxGeometry relative="1" as="geometry" />
        </mxCell>
        <mxCell id="Kz0ILVLRbBPBbnpEan82-49" style="edgeStyle=orthogonalEdgeStyle;rounded=0;orthogonalLoop=1;jettySize=auto;html=1;exitX=0.5;exitY=1;exitDx=0;exitDy=0;" parent="WIyWlLk6GJQsqaUBKTNV-1" source="Kz0ILVLRbBPBbnpEan82-42" target="Kz0ILVLRbBPBbnpEan82-46" edge="1">
          <mxGeometry relative="1" as="geometry" />
        </mxCell>
        <mxCell id="Kz0ILVLRbBPBbnpEan82-50" style="edgeStyle=orthogonalEdgeStyle;rounded=0;orthogonalLoop=1;jettySize=auto;html=1;exitX=0.5;exitY=1;exitDx=0;exitDy=0;" parent="WIyWlLk6GJQsqaUBKTNV-1" source="Kz0ILVLRbBPBbnpEan82-42" target="Kz0ILVLRbBPBbnpEan82-45" edge="1">
          <mxGeometry relative="1" as="geometry" />
        </mxCell>
        <mxCell id="Kz0ILVLRbBPBbnpEan82-42" value="&quot;АЯН&quot;" style="rounded=1;whiteSpace=wrap;html=1;fillColor=#fff2cc;strokeColor=#d6b656;" parent="WIyWlLk6GJQsqaUBKTNV-1" vertex="1">
          <mxGeometry x="140" y="-570" width="120" height="60" as="geometry" />
        </mxCell>
        <mxCell id="Kz0ILVLRbBPBbnpEan82-96" style="edgeStyle=orthogonalEdgeStyle;rounded=0;orthogonalLoop=1;jettySize=auto;html=1;exitX=0.5;exitY=1;exitDx=0;exitDy=0;entryX=0.5;entryY=1;entryDx=0;entryDy=0;" parent="WIyWlLk6GJQsqaUBKTNV-1" source="Kz0ILVLRbBPBbnpEan82-43" target="Kz0ILVLRbBPBbnpEan82-43" edge="1">
          <mxGeometry relative="1" as="geometry" />
        </mxCell>
        <mxCell id="Kz0ILVLRbBPBbnpEan82-97" style="edgeStyle=orthogonalEdgeStyle;rounded=0;orthogonalLoop=1;jettySize=auto;html=1;exitX=0.5;exitY=1;exitDx=0;exitDy=0;entryX=0.5;entryY=0;entryDx=0;entryDy=0;" parent="WIyWlLk6GJQsqaUBKTNV-1" source="Kz0ILVLRbBPBbnpEan82-43" target="Kz0ILVLRbBPBbnpEan82-95" edge="1">
          <mxGeometry relative="1" as="geometry" />
        </mxCell>
        <mxCell id="Kz0ILVLRbBPBbnpEan82-43" value="Производственный цех" style="rounded=1;whiteSpace=wrap;html=1;fillColor=#ffe6cc;strokeColor=#d79b00;" parent="WIyWlLk6GJQsqaUBKTNV-1" vertex="1">
          <mxGeometry x="-160" y="-470" width="120" height="60" as="geometry" />
        </mxCell>
        <mxCell id="Kz0ILVLRbBPBbnpEan82-44" value="Технологический отдел" style="rounded=1;whiteSpace=wrap;html=1;fillColor=#ffe6cc;strokeColor=#d79b00;" parent="WIyWlLk6GJQsqaUBKTNV-1" vertex="1">
          <mxGeometry x="40" y="-470" width="120" height="60" as="geometry" />
        </mxCell>
        <mxCell id="Kz0ILVLRbBPBbnpEan82-56" style="edgeStyle=orthogonalEdgeStyle;rounded=0;orthogonalLoop=1;jettySize=auto;html=1;exitX=0.5;exitY=1;exitDx=0;exitDy=0;" parent="WIyWlLk6GJQsqaUBKTNV-1" source="Kz0ILVLRbBPBbnpEan82-45" target="Kz0ILVLRbBPBbnpEan82-55" edge="1">
          <mxGeometry relative="1" as="geometry" />
        </mxCell>
        <mxCell id="Kz0ILVLRbBPBbnpEan82-58" style="edgeStyle=orthogonalEdgeStyle;rounded=0;orthogonalLoop=1;jettySize=auto;html=1;exitX=0.5;exitY=1;exitDx=0;exitDy=0;entryX=0;entryY=0.75;entryDx=0;entryDy=0;" parent="WIyWlLk6GJQsqaUBKTNV-1" source="Kz0ILVLRbBPBbnpEan82-45" target="Kz0ILVLRbBPBbnpEan82-52" edge="1">
          <mxGeometry relative="1" as="geometry" />
        </mxCell>
        <mxCell id="Kz0ILVLRbBPBbnpEan82-59" style="edgeStyle=orthogonalEdgeStyle;rounded=0;orthogonalLoop=1;jettySize=auto;html=1;exitX=0.5;exitY=1;exitDx=0;exitDy=0;entryX=1;entryY=0.5;entryDx=0;entryDy=0;" parent="WIyWlLk6GJQsqaUBKTNV-1" source="Kz0ILVLRbBPBbnpEan82-45" target="Kz0ILVLRbBPBbnpEan82-54" edge="1">
          <mxGeometry relative="1" as="geometry" />
        </mxCell>
        <mxCell id="Kz0ILVLRbBPBbnpEan82-45" value="Вспомогательное производство" style="rounded=1;whiteSpace=wrap;html=1;fillColor=#ffe6cc;strokeColor=#d79b00;" parent="WIyWlLk6GJQsqaUBKTNV-1" vertex="1">
          <mxGeometry x="240" y="-470" width="120" height="60" as="geometry" />
        </mxCell>
        <mxCell id="Kz0ILVLRbBPBbnpEan82-74" style="edgeStyle=orthogonalEdgeStyle;rounded=0;orthogonalLoop=1;jettySize=auto;html=1;exitX=0.5;exitY=1;exitDx=0;exitDy=0;entryX=1;entryY=0.5;entryDx=0;entryDy=0;" parent="WIyWlLk6GJQsqaUBKTNV-1" source="Kz0ILVLRbBPBbnpEan82-46" target="Kz0ILVLRbBPBbnpEan82-66" edge="1">
          <mxGeometry relative="1" as="geometry" />
        </mxCell>
        <mxCell id="Kz0ILVLRbBPBbnpEan82-75" style="edgeStyle=orthogonalEdgeStyle;rounded=0;orthogonalLoop=1;jettySize=auto;html=1;exitX=0.5;exitY=1;exitDx=0;exitDy=0;entryX=0;entryY=0.75;entryDx=0;entryDy=0;" parent="WIyWlLk6GJQsqaUBKTNV-1" source="Kz0ILVLRbBPBbnpEan82-46" target="Kz0ILVLRbBPBbnpEan82-67" edge="1">
          <mxGeometry relative="1" as="geometry" />
        </mxCell>
        <mxCell id="Kz0ILVLRbBPBbnpEan82-77" style="edgeStyle=orthogonalEdgeStyle;rounded=0;orthogonalLoop=1;jettySize=auto;html=1;exitX=0.5;exitY=1;exitDx=0;exitDy=0;entryX=0;entryY=0.75;entryDx=0;entryDy=0;" parent="WIyWlLk6GJQsqaUBKTNV-1" source="Kz0ILVLRbBPBbnpEan82-46" target="Kz0ILVLRbBPBbnpEan82-68" edge="1">
          <mxGeometry relative="1" as="geometry" />
        </mxCell>
        <mxCell id="Kz0ILVLRbBPBbnpEan82-89" style="edgeStyle=orthogonalEdgeStyle;rounded=0;orthogonalLoop=1;jettySize=auto;html=1;exitX=0.5;exitY=1;exitDx=0;exitDy=0;entryX=1;entryY=0.5;entryDx=0;entryDy=0;" parent="WIyWlLk6GJQsqaUBKTNV-1" source="Kz0ILVLRbBPBbnpEan82-46" target="Kz0ILVLRbBPBbnpEan82-70" edge="1">
          <mxGeometry relative="1" as="geometry" />
        </mxCell>
        <mxCell id="Kz0ILVLRbBPBbnpEan82-90" style="edgeStyle=orthogonalEdgeStyle;rounded=0;orthogonalLoop=1;jettySize=auto;html=1;exitX=0.5;exitY=1;exitDx=0;exitDy=0;entryX=0;entryY=0.75;entryDx=0;entryDy=0;" parent="WIyWlLk6GJQsqaUBKTNV-1" source="Kz0ILVLRbBPBbnpEan82-46" target="Kz0ILVLRbBPBbnpEan82-88" edge="1">
          <mxGeometry relative="1" as="geometry" />
        </mxCell>
        <mxCell id="Kz0ILVLRbBPBbnpEan82-46" value="Служебное производство" style="rounded=1;whiteSpace=wrap;html=1;fillColor=#ffe6cc;strokeColor=#d79b00;" parent="WIyWlLk6GJQsqaUBKTNV-1" vertex="1">
          <mxGeometry x="560" y="-470" width="120" height="60" as="geometry" />
        </mxCell>
        <mxCell id="Kz0ILVLRbBPBbnpEan82-51" value="Отел тех. обслуживания" style="rounded=1;whiteSpace=wrap;html=1;fillColor=#dae8fc;strokeColor=#6c8ebf;" parent="WIyWlLk6GJQsqaUBKTNV-1" vertex="1">
          <mxGeometry x="160" y="-380" width="120" height="60" as="geometry" />
        </mxCell>
        <mxCell id="Kz0ILVLRbBPBbnpEan82-52" value="Транспортный отдел" style="rounded=1;whiteSpace=wrap;html=1;fillColor=#dae8fc;strokeColor=#6c8ebf;" parent="WIyWlLk6GJQsqaUBKTNV-1" vertex="1">
          <mxGeometry x="320" y="-380" width="120" height="60" as="geometry" />
        </mxCell>
        <mxCell id="Kz0ILVLRbBPBbnpEan82-53" value="Отдел закупок" style="rounded=1;whiteSpace=wrap;html=1;fillColor=#dae8fc;strokeColor=#6c8ebf;" parent="WIyWlLk6GJQsqaUBKTNV-1" vertex="1">
          <mxGeometry x="320" y="-290" width="120" height="60" as="geometry" />
        </mxCell>
        <mxCell id="Kz0ILVLRbBPBbnpEan82-54" value="Отдел логистики" style="rounded=1;whiteSpace=wrap;html=1;fillColor=#dae8fc;strokeColor=#6c8ebf;" parent="WIyWlLk6GJQsqaUBKTNV-1" vertex="1">
          <mxGeometry x="160" y="-290" width="120" height="60" as="geometry" />
        </mxCell>
        <mxCell id="Kz0ILVLRbBPBbnpEan82-55" value="Лаборатория" style="rounded=1;whiteSpace=wrap;html=1;fillColor=#dae8fc;strokeColor=#6c8ebf;" parent="WIyWlLk6GJQsqaUBKTNV-1" vertex="1">
          <mxGeometry x="240" y="-200" width="120" height="60" as="geometry" />
        </mxCell>
        <mxCell id="Kz0ILVLRbBPBbnpEan82-57" style="edgeStyle=orthogonalEdgeStyle;rounded=0;orthogonalLoop=1;jettySize=auto;html=1;exitX=0.5;exitY=1;exitDx=0;exitDy=0;entryX=1.008;entryY=0.585;entryDx=0;entryDy=0;entryPerimeter=0;" parent="WIyWlLk6GJQsqaUBKTNV-1" source="Kz0ILVLRbBPBbnpEan82-45" target="Kz0ILVLRbBPBbnpEan82-51" edge="1">
          <mxGeometry relative="1" as="geometry" />
        </mxCell>
        <mxCell id="Kz0ILVLRbBPBbnpEan82-60" style="edgeStyle=orthogonalEdgeStyle;rounded=0;orthogonalLoop=1;jettySize=auto;html=1;exitX=0.5;exitY=1;exitDx=0;exitDy=0;entryX=0.002;entryY=0.832;entryDx=0;entryDy=0;entryPerimeter=0;" parent="WIyWlLk6GJQsqaUBKTNV-1" source="Kz0ILVLRbBPBbnpEan82-45" target="Kz0ILVLRbBPBbnpEan82-53" edge="1">
          <mxGeometry relative="1" as="geometry" />
        </mxCell>
        <mxCell id="Kz0ILVLRbBPBbnpEan82-66" value="Отдел финансов" style="rounded=1;whiteSpace=wrap;html=1;fillColor=#dae8fc;strokeColor=#6c8ebf;" parent="WIyWlLk6GJQsqaUBKTNV-1" vertex="1">
          <mxGeometry x="480" y="-380" width="120" height="60" as="geometry" />
        </mxCell>
        <mxCell id="Kz0ILVLRbBPBbnpEan82-67" value="Отдел кадров" style="rounded=1;whiteSpace=wrap;html=1;fillColor=#dae8fc;strokeColor=#6c8ebf;" parent="WIyWlLk6GJQsqaUBKTNV-1" vertex="1">
          <mxGeometry x="640" y="-380" width="120" height="60" as="geometry" />
        </mxCell>
        <mxCell id="Kz0ILVLRbBPBbnpEan82-68" value="Склад" style="rounded=1;whiteSpace=wrap;html=1;fillColor=#dae8fc;strokeColor=#6c8ebf;" parent="WIyWlLk6GJQsqaUBKTNV-1" vertex="1">
          <mxGeometry x="640" y="-290" width="120" height="60" as="geometry" />
        </mxCell>
        <mxCell id="Kz0ILVLRbBPBbnpEan82-69" value="Отдел поддержки IT-инфраструктуры" style="rounded=1;whiteSpace=wrap;html=1;fillColor=#dae8fc;strokeColor=#6c8ebf;" parent="WIyWlLk6GJQsqaUBKTNV-1" vertex="1">
          <mxGeometry x="480" y="-290" width="120" height="60" as="geometry" />
        </mxCell>
        <mxCell id="Kz0ILVLRbBPBbnpEan82-70" value="Служба уборки" style="rounded=1;whiteSpace=wrap;html=1;fillColor=#dae8fc;strokeColor=#6c8ebf;" parent="WIyWlLk6GJQsqaUBKTNV-1" vertex="1">
          <mxGeometry x="480" y="-200" width="120" height="60" as="geometry" />
        </mxCell>
        <mxCell id="Kz0ILVLRbBPBbnpEan82-76" style="edgeStyle=orthogonalEdgeStyle;rounded=0;orthogonalLoop=1;jettySize=auto;html=1;exitX=0.5;exitY=1;exitDx=0;exitDy=0;entryX=0.996;entryY=0.43;entryDx=0;entryDy=0;entryPerimeter=0;" parent="WIyWlLk6GJQsqaUBKTNV-1" source="Kz0ILVLRbBPBbnpEan82-46" target="Kz0ILVLRbBPBbnpEan82-69" edge="1">
          <mxGeometry relative="1" as="geometry" />
        </mxCell>
        <mxCell id="Kz0ILVLRbBPBbnpEan82-88" value="Отдел по охране труда" style="rounded=1;whiteSpace=wrap;html=1;fillColor=#dae8fc;strokeColor=#6c8ebf;" parent="WIyWlLk6GJQsqaUBKTNV-1" vertex="1">
          <mxGeometry x="640" y="-200" width="120" height="60" as="geometry" />
        </mxCell>
        <mxCell id="Kz0ILVLRbBPBbnpEan82-91" value="Участок подготовки и водоподготовки" style="rounded=1;whiteSpace=wrap;html=1;fillColor=#dae8fc;strokeColor=#6c8ebf;" parent="WIyWlLk6GJQsqaUBKTNV-1" vertex="1">
          <mxGeometry x="-160" y="-380" width="120" height="60" as="geometry" />
        </mxCell>
        <mxCell id="Kz0ILVLRbBPBbnpEan82-92" value="Участок создания тары (выдув бутылок)" style="rounded=1;whiteSpace=wrap;html=1;fillColor=#dae8fc;strokeColor=#6c8ebf;" parent="WIyWlLk6GJQsqaUBKTNV-1" vertex="1">
          <mxGeometry x="-160" y="-290" width="120" height="60" as="geometry" />
        </mxCell>
        <mxCell id="Kz0ILVLRbBPBbnpEan82-93" value="Участок маркировки и упаковки" style="rounded=1;whiteSpace=wrap;html=1;fillColor=#dae8fc;strokeColor=#6c8ebf;" parent="WIyWlLk6GJQsqaUBKTNV-1" vertex="1">
          <mxGeometry x="-160" y="-110" width="120" height="60" as="geometry" />
        </mxCell>
        <mxCell id="Kz0ILVLRbBPBbnpEan82-94" value="Участок розлива и укупорки" style="rounded=1;whiteSpace=wrap;html=1;fillColor=#dae8fc;strokeColor=#6c8ebf;" parent="WIyWlLk6GJQsqaUBKTNV-1" vertex="1">
          <mxGeometry x="-160" y="-200" width="120" height="60" as="geometry" />
        </mxCell>
        <mxCell id="m-dbjvyVrqkAvfIUvC8t-2" value="Производственный цех" style="rounded=0;whiteSpace=wrap;html=1;fillColor=#fff2cc;strokeColor=#d6b656;" vertex="1" parent="WIyWlLk6GJQsqaUBKTNV-1">
          <mxGeometry x="1200" y="960" width="170" height="60" as="geometry" />
        </mxCell>
        <mxCell id="m-dbjvyVrqkAvfIUvC8t-6" value="Провести&amp;nbsp;&lt;div&gt;испытания&lt;/div&gt;" style="html=1;dashed=0;whiteSpace=wrap;shape=mxgraph.dfd.externalEntity;fillColor=#ffe6cc;strokeColor=#d79b00;" vertex="1" parent="WIyWlLk6GJQsqaUBKTNV-1">
          <mxGeometry x="1210" y="1110" width="150" height="70" as="geometry" />
        </mxCell>
        <mxCell id="m-dbjvyVrqkAvfIUvC8t-7" value="1" style="autosize=1;part=1;resizable=0;strokeColor=inherit;fillColor=inherit;gradientColor=inherit;" vertex="1" parent="m-dbjvyVrqkAvfIUvC8t-6">
          <mxGeometry width="30" height="30" relative="1" as="geometry">
            <mxPoint x="10" y="10" as="offset" />
          </mxGeometry>
        </mxCell>
        <mxCell id="m-dbjvyVrqkAvfIUvC8t-8" value="&lt;div&gt;&lt;br&gt;&lt;/div&gt;&lt;div&gt;&lt;br&gt;&lt;/div&gt;&lt;div&gt;&lt;br&gt;&lt;/div&gt;Проанализировать результаты" style="html=1;dashed=0;whiteSpace=wrap;shape=mxgraph.dfd.externalEntity;fillColor=#ffe6cc;strokeColor=#d79b00;" vertex="1" parent="WIyWlLk6GJQsqaUBKTNV-1">
          <mxGeometry x="1210" y="1260" width="150" height="70" as="geometry" />
        </mxCell>
        <mxCell id="m-dbjvyVrqkAvfIUvC8t-9" value="2" style="autosize=1;part=1;resizable=0;strokeColor=inherit;fillColor=inherit;gradientColor=inherit;" vertex="1" parent="m-dbjvyVrqkAvfIUvC8t-8">
          <mxGeometry width="30" height="30" relative="1" as="geometry">
            <mxPoint x="10" y="10" as="offset" />
          </mxGeometry>
        </mxCell>
        <mxCell id="m-dbjvyVrqkAvfIUvC8t-21" style="edgeStyle=orthogonalEdgeStyle;rounded=0;orthogonalLoop=1;jettySize=auto;html=1;exitX=0;exitY=0;exitDx=0;exitDy=30;exitPerimeter=0;entryX=0;entryY=0.5;entryDx=0;entryDy=0;" edge="1" parent="WIyWlLk6GJQsqaUBKTNV-1" source="m-dbjvyVrqkAvfIUvC8t-10" target="m-dbjvyVrqkAvfIUvC8t-2">
          <mxGeometry relative="1" as="geometry" />
        </mxCell>
        <mxCell id="m-dbjvyVrqkAvfIUvC8t-22" value="Уведомление&lt;div&gt;о браке&lt;/div&gt;" style="edgeLabel;html=1;align=center;verticalAlign=middle;resizable=0;points=[];" vertex="1" connectable="0" parent="m-dbjvyVrqkAvfIUvC8t-21">
          <mxGeometry x="0.7877" y="3" relative="1" as="geometry">
            <mxPoint x="-27" y="11" as="offset" />
          </mxGeometry>
        </mxCell>
        <mxCell id="m-dbjvyVrqkAvfIUvC8t-31" style="edgeStyle=orthogonalEdgeStyle;rounded=0;orthogonalLoop=1;jettySize=auto;html=1;exitX=0;exitY=0;exitDx=140;exitDy=0;exitPerimeter=0;entryX=0.5;entryY=0;entryDx=0;entryDy=0;" edge="1" parent="WIyWlLk6GJQsqaUBKTNV-1" source="m-dbjvyVrqkAvfIUvC8t-10" target="m-dbjvyVrqkAvfIUvC8t-15">
          <mxGeometry relative="1" as="geometry">
            <Array as="points">
              <mxPoint x="1370" y="1370" />
              <mxPoint x="1370" y="1350" />
              <mxPoint x="1705" y="1350" />
            </Array>
          </mxGeometry>
        </mxCell>
        <mxCell id="m-dbjvyVrqkAvfIUvC8t-32" value="Отчёт о нарушениях" style="edgeLabel;html=1;align=center;verticalAlign=middle;resizable=0;points=[];" vertex="1" connectable="0" parent="m-dbjvyVrqkAvfIUvC8t-31">
          <mxGeometry x="0.1811" relative="1" as="geometry">
            <mxPoint x="41" as="offset" />
          </mxGeometry>
        </mxCell>
        <mxCell id="m-dbjvyVrqkAvfIUvC8t-10" value="&lt;div&gt;&lt;br&gt;&lt;/div&gt;&lt;div&gt;&lt;br&gt;&lt;/div&gt;&lt;div&gt;&lt;br&gt;&lt;/div&gt;Зарегистрировать результат" style="html=1;dashed=0;whiteSpace=wrap;shape=mxgraph.dfd.externalEntity;fillColor=#ffe6cc;strokeColor=#d79b00;" vertex="1" parent="WIyWlLk6GJQsqaUBKTNV-1">
          <mxGeometry x="1210" y="1370" width="150" height="70" as="geometry" />
        </mxCell>
        <mxCell id="m-dbjvyVrqkAvfIUvC8t-11" value="3" style="autosize=1;part=1;resizable=0;strokeColor=inherit;fillColor=inherit;gradientColor=inherit;" vertex="1" parent="m-dbjvyVrqkAvfIUvC8t-10">
          <mxGeometry width="30" height="30" relative="1" as="geometry">
            <mxPoint x="10" y="10" as="offset" />
          </mxGeometry>
        </mxCell>
        <mxCell id="m-dbjvyVrqkAvfIUvC8t-12" value="База данных протокола испытаний" style="shape=cylinder;whiteSpace=wrap;html=1;boundedLbl=1;backgroundOutline=1;fillColor=#dae8fc;strokeColor=#6c8ebf;" vertex="1" parent="WIyWlLk6GJQsqaUBKTNV-1">
          <mxGeometry x="1460" y="1370" width="90" height="70" as="geometry" />
        </mxCell>
        <mxCell id="m-dbjvyVrqkAvfIUvC8t-14" value="Склад готовой продукции" style="rounded=0;whiteSpace=wrap;html=1;fillColor=#fff2cc;strokeColor=#d6b656;" vertex="1" parent="WIyWlLk6GJQsqaUBKTNV-1">
          <mxGeometry x="930" y="1470" width="170" height="60" as="geometry" />
        </mxCell>
        <mxCell id="m-dbjvyVrqkAvfIUvC8t-15" value="Технологический отдел" style="rounded=0;whiteSpace=wrap;html=1;fillColor=#fff2cc;strokeColor=#d6b656;" vertex="1" parent="WIyWlLk6GJQsqaUBKTNV-1">
          <mxGeometry x="1620" y="1380" width="170" height="60" as="geometry" />
        </mxCell>
        <mxCell id="m-dbjvyVrqkAvfIUvC8t-16" value="База данных стандартов качества" style="shape=cylinder;whiteSpace=wrap;html=1;boundedLbl=1;backgroundOutline=1;fillColor=#dae8fc;strokeColor=#6c8ebf;" vertex="1" parent="WIyWlLk6GJQsqaUBKTNV-1">
          <mxGeometry x="1240" y="1560" width="90" height="70" as="geometry" />
        </mxCell>
        <mxCell id="m-dbjvyVrqkAvfIUvC8t-17" style="edgeStyle=orthogonalEdgeStyle;rounded=0;orthogonalLoop=1;jettySize=auto;html=1;exitX=0.5;exitY=1;exitDx=0;exitDy=0;entryX=0.494;entryY=0.102;entryDx=0;entryDy=0;entryPerimeter=0;" edge="1" parent="WIyWlLk6GJQsqaUBKTNV-1" source="m-dbjvyVrqkAvfIUvC8t-2" target="m-dbjvyVrqkAvfIUvC8t-6">
          <mxGeometry relative="1" as="geometry" />
        </mxCell>
        <mxCell id="m-dbjvyVrqkAvfIUvC8t-18" value="Проба сырья/&lt;div&gt;Проба готовой продукции&lt;/div&gt;" style="edgeLabel;html=1;align=center;verticalAlign=middle;resizable=0;points=[];" vertex="1" connectable="0" parent="m-dbjvyVrqkAvfIUvC8t-17">
          <mxGeometry x="-0.157" y="-1" relative="1" as="geometry">
            <mxPoint as="offset" />
          </mxGeometry>
        </mxCell>
        <mxCell id="m-dbjvyVrqkAvfIUvC8t-19" style="edgeStyle=orthogonalEdgeStyle;rounded=0;orthogonalLoop=1;jettySize=auto;html=1;exitX=0;exitY=0;exitDx=80;exitDy=70;exitPerimeter=0;entryX=0.533;entryY=0.055;entryDx=0;entryDy=0;entryPerimeter=0;" edge="1" parent="WIyWlLk6GJQsqaUBKTNV-1" source="m-dbjvyVrqkAvfIUvC8t-6" target="m-dbjvyVrqkAvfIUvC8t-8">
          <mxGeometry relative="1" as="geometry" />
        </mxCell>
        <mxCell id="m-dbjvyVrqkAvfIUvC8t-20" value="Результаты измерений" style="edgeLabel;html=1;align=center;verticalAlign=middle;resizable=0;points=[];" vertex="1" connectable="0" parent="m-dbjvyVrqkAvfIUvC8t-19">
          <mxGeometry x="-0.0141" relative="1" as="geometry">
            <mxPoint as="offset" />
          </mxGeometry>
        </mxCell>
        <mxCell id="m-dbjvyVrqkAvfIUvC8t-23" style="edgeStyle=orthogonalEdgeStyle;rounded=0;orthogonalLoop=1;jettySize=auto;html=1;exitX=0;exitY=0;exitDx=80;exitDy=70;exitPerimeter=0;entryX=0.533;entryY=0;entryDx=0;entryDy=0;entryPerimeter=0;" edge="1" parent="WIyWlLk6GJQsqaUBKTNV-1" source="m-dbjvyVrqkAvfIUvC8t-8" target="m-dbjvyVrqkAvfIUvC8t-10">
          <mxGeometry relative="1" as="geometry" />
        </mxCell>
        <mxCell id="m-dbjvyVrqkAvfIUvC8t-24" value="Предварительный результат" style="edgeLabel;html=1;align=center;verticalAlign=middle;resizable=0;points=[];" vertex="1" connectable="0" parent="m-dbjvyVrqkAvfIUvC8t-23">
          <mxGeometry x="-0.0583" y="-1" relative="1" as="geometry">
            <mxPoint as="offset" />
          </mxGeometry>
        </mxCell>
        <mxCell id="m-dbjvyVrqkAvfIUvC8t-25" style="edgeStyle=orthogonalEdgeStyle;rounded=0;orthogonalLoop=1;jettySize=auto;html=1;exitX=0;exitY=0;exitDx=0;exitDy=45;exitPerimeter=0;entryX=0.461;entryY=0.05;entryDx=0;entryDy=0;entryPerimeter=0;" edge="1" parent="WIyWlLk6GJQsqaUBKTNV-1" source="m-dbjvyVrqkAvfIUvC8t-10" target="m-dbjvyVrqkAvfIUvC8t-14">
          <mxGeometry relative="1" as="geometry" />
        </mxCell>
        <mxCell id="m-dbjvyVrqkAvfIUvC8t-26" value="Акт о допуске&lt;div&gt;в продажу&lt;/div&gt;" style="edgeLabel;html=1;align=center;verticalAlign=middle;resizable=0;points=[];" vertex="1" connectable="0" parent="m-dbjvyVrqkAvfIUvC8t-25">
          <mxGeometry x="0.5531" y="-1" relative="1" as="geometry">
            <mxPoint y="-1" as="offset" />
          </mxGeometry>
        </mxCell>
        <mxCell id="m-dbjvyVrqkAvfIUvC8t-27" style="edgeStyle=orthogonalEdgeStyle;rounded=0;orthogonalLoop=1;jettySize=auto;html=1;exitX=0;exitY=0;exitDx=150;exitDy=40;exitPerimeter=0;entryX=-0.037;entryY=0.579;entryDx=0;entryDy=0;entryPerimeter=0;" edge="1" parent="WIyWlLk6GJQsqaUBKTNV-1" source="m-dbjvyVrqkAvfIUvC8t-10" target="m-dbjvyVrqkAvfIUvC8t-12">
          <mxGeometry relative="1" as="geometry" />
        </mxCell>
        <mxCell id="m-dbjvyVrqkAvfIUvC8t-28" value="Финальный&lt;div&gt;протокол&lt;/div&gt;" style="edgeLabel;html=1;align=center;verticalAlign=middle;resizable=0;points=[];" vertex="1" connectable="0" parent="m-dbjvyVrqkAvfIUvC8t-27">
          <mxGeometry x="0.012" relative="1" as="geometry">
            <mxPoint as="offset" />
          </mxGeometry>
        </mxCell>
        <mxCell id="m-dbjvyVrqkAvfIUvC8t-29" style="edgeStyle=orthogonalEdgeStyle;rounded=0;orthogonalLoop=1;jettySize=auto;html=1;exitX=0;exitY=0;exitDx=150;exitDy=40;exitPerimeter=0;entryX=0.361;entryY=-0.017;entryDx=0;entryDy=0;entryPerimeter=0;" edge="1" parent="WIyWlLk6GJQsqaUBKTNV-1" source="m-dbjvyVrqkAvfIUvC8t-6" target="m-dbjvyVrqkAvfIUvC8t-12">
          <mxGeometry relative="1" as="geometry" />
        </mxCell>
        <mxCell id="m-dbjvyVrqkAvfIUvC8t-30" value="Сырые&lt;div&gt;данные&lt;/div&gt;&lt;div&gt;&lt;span style=&quot;background-color: light-dark(#ffffff, var(--ge-dark-color, #121212)); color: light-dark(rgb(0, 0, 0), rgb(255, 255, 255));&quot;&gt;испытаний&lt;/span&gt;&lt;/div&gt;" style="edgeLabel;html=1;align=center;verticalAlign=middle;resizable=0;points=[];" vertex="1" connectable="0" parent="m-dbjvyVrqkAvfIUvC8t-29">
          <mxGeometry x="-0.2884" y="2" relative="1" as="geometry">
            <mxPoint as="offset" />
          </mxGeometry>
        </mxCell>
        <mxCell id="m-dbjvyVrqkAvfIUvC8t-33" style="edgeStyle=orthogonalEdgeStyle;rounded=0;orthogonalLoop=1;jettySize=auto;html=1;exitX=0.5;exitY=1;exitDx=0;exitDy=0;entryX=1.009;entryY=0.579;entryDx=0;entryDy=0;entryPerimeter=0;" edge="1" parent="WIyWlLk6GJQsqaUBKTNV-1" source="m-dbjvyVrqkAvfIUvC8t-15" target="m-dbjvyVrqkAvfIUvC8t-16">
          <mxGeometry relative="1" as="geometry" />
        </mxCell>
        <mxCell id="m-dbjvyVrqkAvfIUvC8t-34" value="Требования к качеству/&lt;div&gt;Обновление стнадартов&lt;/div&gt;" style="edgeLabel;html=1;align=center;verticalAlign=middle;resizable=0;points=[];" vertex="1" connectable="0" parent="m-dbjvyVrqkAvfIUvC8t-33">
          <mxGeometry x="0.3765" y="2" relative="1" as="geometry">
            <mxPoint as="offset" />
          </mxGeometry>
        </mxCell>
        <mxCell id="m-dbjvyVrqkAvfIUvC8t-35" style="edgeStyle=orthogonalEdgeStyle;rounded=0;orthogonalLoop=1;jettySize=auto;html=1;exitX=0;exitY=0.5;exitDx=0;exitDy=0;entryX=0;entryY=0;entryDx=0;entryDy=45;entryPerimeter=0;" edge="1" parent="WIyWlLk6GJQsqaUBKTNV-1" source="m-dbjvyVrqkAvfIUvC8t-16" target="m-dbjvyVrqkAvfIUvC8t-8">
          <mxGeometry relative="1" as="geometry" />
        </mxCell>
        <mxCell id="m-dbjvyVrqkAvfIUvC8t-36" value="Стандарты&lt;div&gt;качества&lt;/div&gt;" style="edgeLabel;html=1;align=center;verticalAlign=middle;resizable=0;points=[];" vertex="1" connectable="0" parent="m-dbjvyVrqkAvfIUvC8t-35">
          <mxGeometry x="-0.0028" relative="1" as="geometry">
            <mxPoint y="24" as="offset" />
          </mxGeometry>
        </mxCell>
      </root>
    </mxGraphModel>
  </diagram>
</mxfile>
